<?xml version="1.0" encoding="UTF-8" standalone="no"?>
<svg width="184px" height="140px" viewBox="0 0 184 140" version="1.1" xmlns="http://www.w3.org/2000/svg" xmlns:xlink="http://www.w3.org/1999/xlink" xmlns:sketch="http://www.bohemiancoding.com/sketch/ns">
    <!-- Generator: Sketch 3.2.2 (9983) - http://www.bohemiancoding.com/sketch -->
    <title>printer_icon</title>
    <desc>Created with Sketch.</desc>
    <defs></defs>
    <g id="Page-1" stroke="none" stroke-width="1" fill="none" fill-rule="evenodd" sketch:type="MSPage">
        <g id="Landing" sketch:type="MSArtboardGroup" transform="translate(-431.000000, -1150.000000)">
            <g id="printer_icon" sketch:type="MSLayerGroup" transform="translate(431.000000, 1150.000000)">
                <path d="M166.506381,14.0499203 L14.6013172,14.0499203 L0.265993958,28.4336653 L0.265993958,137.0349 L25.6410393,137.0349 L37.4434441,125.190956 L143.665366,125.190956 L155.466103,137.0349 L180.841704,137.0349 L180.841704,28.4336653 L166.506381,14.0499203 M161.802985,100.323386 L19.304713,100.323386 L19.304713,38.367251 L30.6173776,27.0169323 L150.489764,27.0169323 L161.802985,38.367251 L161.802985,100.323386" id="Fill-1" fill="#E0E0D1" sketch:type="MSShapeGroup"></path>
                <path d="M14.9682054,14.0499203 L166.872713,14.0499203 L174.066224,21.2677291 L155.757112,0.0641434263 L24.3349728,0.0641434263 L0.737667674,27.3421116 L1.72076133,27.3421116 L14.9682054,14.0499203" id="Fill-2" fill="#D1D1D1" sketch:type="MSShapeGroup"></path>
                <path d="M158.649414,2.96649402 L158.263069,2.96649402 L174.066224,21.2677291 L176.95797,24.169243 L158.649414,2.96649402" id="Fill-3" fill="#D9D9D9" sketch:type="MSShapeGroup"></path>
                <path d="M158.263069,2.96649402 L158.262792,2.96649402 L174.066224,21.2677291 L158.263069,2.96649402" id="Fill-4" fill="#B2B2B2" sketch:type="MSShapeGroup"></path>
                <path d="M180.841704,28.4336653 L180.841704,137.0349 L155.467215,137.0349 L158.358405,139.935857 L183.734006,139.935857 L183.734006,31.3357371 L180.841704,28.4336653" id="Fill-5" fill="#D9D9D9" sketch:type="MSShapeGroup"></path>
                <path d="M143.665366,125.190956 L37.4434441,125.190956 L25.6410393,137.0349 L3.15801813,137.0349 L3.15801813,139.935857 L28.5333414,139.935857 L40.3357462,128.093307 L146.556556,128.093307 L143.665366,125.190956" id="Fill-6" fill="#D9D9D9" sketch:type="MSShapeGroup"></path>
                <path d="M150.489208,27.0169323 L147.871517,27.0169323 L147.871517,68.5506375 L160.39797,100.323386 L161.802429,100.323386 L161.802429,38.367251 L150.489208,27.0169323" id="Fill-7" fill="#828282" sketch:type="MSShapeGroup"></path>
                <path d="M30.6173776,27.0169323 L19.304713,38.367251 L19.304713,100.323386 L20.2358308,100.323386 L32.762284,68.5506375 L32.762284,27.0169323 L30.6173776,27.0169323" id="Fill-8" fill="#828282" sketch:type="MSShapeGroup"></path>
                <path d="M32.5502115,68.5495219 L19.9765076,100.323386 L160.39797,100.323386 L147.871517,68.5506375 L147.871517,68.5495219 L32.5502115,68.5495219" id="Fill-9" fill="#B9B9B9" sketch:type="MSShapeGroup"></path>
                <path d="M124.256979,60.4242231 L56.820423,60.4242231 L52.5311662,77.835259 L128.575976,77.835259 L124.256979,60.4242231" id="Fill-10" fill="#77B3D4" sketch:type="MSShapeGroup"></path>
                <path d="M154.86852,49.402988 L26.2386224,49.402988 L25.0356737,51.7963745 L156.071468,51.7963745 L154.86852,49.402988" id="Fill-11" fill="#EBEBEB" sketch:type="MSShapeGroup"></path>
                <path d="M151.295807,42.2972908 L29.8113353,42.2972908 L28.6075529,44.6912351 L152.498755,44.6912351 L151.295807,42.2972908" id="Fill-12" fill="#EBEBEB" sketch:type="MSShapeGroup"></path>
                <path d="M109.966683,44.6912351 L71.1393474,44.6912351 L67.4763021,48.3691633 L67.4763021,54.7865737 L82.2908036,54.7865737 L82.2908036,52.3103586 L84.9157221,49.6768526 L96.1925317,49.6768526 L98.8152266,52.3103586 L98.8152266,54.7865737 L113.631396,54.7865737 L113.631396,48.3691633 L109.966683,44.6912351" id="Fill-13" fill="#4F5D73" sketch:type="MSShapeGroup"></path>
                <path d="M74.4730272,27.0169323 L106.634393,27.0169323 L106.634393,44.6912351 L74.4730272,44.6912351 L74.4730272,27.0169323 Z" id="Fill-14" fill="#999999" sketch:type="MSShapeGroup"></path>
                <path d="M84.4054139,41.0252988 C81.6412447,41.0252988 79.3926647,38.7694024 79.3926647,35.9967331 C79.3926647,33.2232271 81.6412447,30.9670518 84.4054139,30.9670518 C87.1693051,30.9670518 89.4176073,33.2232271 89.4176073,35.9967331 C89.4176073,38.7694024 87.1693051,41.0252988 84.4054139,41.0252988 M84.4054139,31.2573705 C81.8007855,31.2573705 79.682006,33.3844223 79.682006,35.9967331 C79.682006,38.6101594 81.8007855,40.7355378 84.4054139,40.7355378 C87.0094864,40.7355378 89.1282659,38.6101594 89.1282659,35.9967331 C89.1282659,33.3844223 87.0094864,31.2573705 84.4054139,31.2573705" id="Fill-15" fill="#FFFFFF" sketch:type="MSShapeGroup"></path>
                <path d="M84.4043021,38.5203586 C83.0181873,38.5203586 81.8894502,37.3889243 81.8894502,35.9967331 C81.8894502,34.6062151 83.0181873,33.4736653 84.4043021,33.4736653 C85.7915287,33.4736653 86.9191541,34.6062151 86.9191541,35.9967331 C86.9191541,37.3889243 85.7915287,38.5203586 84.4043021,38.5203586 M84.4043021,33.7634263 C83.1774502,33.7634263 82.1785136,34.7657371 82.1785136,35.9967331 C82.1785136,37.2288446 83.1774502,38.2300398 84.4043021,38.2300398 C85.63171,38.2300398 86.6300906,37.2288446 86.6300906,35.9967331 C86.6300906,34.7657371 85.63171,33.7634263 84.4043021,33.7634263" id="Fill-16" fill="#FFFFFF" sketch:type="MSShapeGroup"></path>
                <path d="M96.7028399,41.0252988 C93.9386707,41.0252988 91.6900906,38.7694024 91.6900906,35.9967331 C91.6900906,33.2232271 93.9386707,30.9670518 96.7028399,30.9670518 C99.4664532,30.9670518 101.715033,33.2232271 101.715033,35.9967331 C101.715033,38.7694024 99.4664532,41.0252988 96.7028399,41.0252988 L96.7028399,41.0252988 Z M96.7028399,31.2573705 C94.0982115,31.2573705 91.979432,33.3844223 91.979432,35.9967331 C91.979432,38.6101594 94.0982115,40.7355378 96.7028399,40.7355378 C99.3069124,40.7355378 101.425692,38.6101594 101.425692,35.9967331 C101.425692,33.3844223 99.3069124,31.2573705 96.7028399,31.2573705 L96.7028399,31.2573705 Z" id="Fill-17" fill="#FFFFFF" sketch:type="MSShapeGroup"></path>
                <path d="M96.702284,38.5203586 C95.3153353,38.5203586 94.1871541,37.3889243 94.1871541,35.9967331 C94.1871541,34.6062151 95.3153353,33.4736653 96.702284,33.4736653 C98.0886767,33.4736653 99.216858,34.6062151 99.216858,35.9967331 C99.216858,37.3889243 98.0886767,38.5203586 96.702284,38.5203586 L96.702284,38.5203586 Z M96.702284,33.7634263 C95.4743202,33.7634263 94.4764955,34.7657371 94.4764955,35.9967331 C94.4764955,37.2288446 95.4743202,38.2300398 96.702284,38.2300398 C97.9296918,38.2300398 98.9280725,37.2288446 98.9280725,35.9967331 C98.9280725,34.7657371 97.9296918,33.7634263 96.702284,33.7634263 L96.702284,33.7634263 Z" id="Fill-18" fill="#FFFFFF" sketch:type="MSShapeGroup"></path>
                <path d="M128.729958,77.835259 L52.3774622,77.835259 L52.3774622,84.7995618 L61.5485559,84.7995618 L61.5485559,92.7784462 L69.9892085,92.7784462 L69.9892085,84.7995618 L86.3335227,84.7995618 L86.3335227,92.7784462 L94.7741752,92.7784462 L94.7741752,84.7995618 L111.118489,84.7995618 L111.118489,92.7784462 L119.558864,92.7784462 L119.558864,84.7995618 L128.729958,84.7995618 L128.729958,77.835259" id="Fill-19" fill="#4F5D73" sketch:type="MSShapeGroup"></path>
                <path d="M106.634393,29.919004 L147.871239,29.919004 L147.871239,27.0169323 L106.634393,27.0169323 L106.634393,29.919004 Z M150.489764,27.0169323 L150.489764,27.0169323 L153.381789,29.919004 L153.382066,29.919004 L161.802985,38.367251 L150.489764,27.0169323 L150.489764,27.0169323 Z" id="Fill-20" fill="#D9D9D9" sketch:type="MSShapeGroup"></path>
                <path d="M150.489764,27.0169323 L90.5516254,27.0169323 L150.489764,27.0169323 L161.802985,38.367251 L150.489764,27.0169323" id="Fill-21" fill="#BFBFB2" sketch:type="MSShapeGroup"></path>
                <path d="M150.489208,27.0169323 L147.871517,27.0169323 L147.871517,29.919004 L153.382066,29.919004 L150.489208,27.0169323" id="Fill-22" fill="#6F6F6F" sketch:type="MSShapeGroup"></path>
                <path d="M90.5516254,27.0169323 L106.634393,27.0169323 L106.634393,29.919004 L90.5516254,29.919004 L90.5516254,27.0169323 Z" id="Fill-23" fill="#828282" sketch:type="MSShapeGroup"></path>
                <path d="M90.5516254,51.7963745 L82.8033353,51.7963745 L82.2908036,52.3103586 L82.2908036,54.7865737 L67.4763021,54.7865737 L67.4763021,51.7963745 L32.762284,51.7963745 L32.762284,68.5506375 L54.8186586,68.5495219 L56.820423,60.4242231 L90.5516254,60.4242231 L90.5516254,51.7963745 M71.1393474,44.6912351 L32.762284,44.6912351 L32.762284,49.402988 L67.4763021,49.402988 L67.4763021,48.3691633 L71.1393474,44.6912351 M74.4730272,29.919004 L33.5099577,29.919004 L32.762284,30.6692032 L32.762284,42.2972908 L74.4730272,42.2972908 L74.4730272,29.919004" id="Fill-24" fill="#FFFFFF" sketch:type="MSShapeGroup"></path>
                <path d="M90.5516254,14.0499203 L14.9682054,14.0499203 L1.72076133,27.3421116 L1.35387311,27.3421116 L0.265993958,28.4336653 L0.265993958,137.0349 L25.6410393,137.0349 L37.4434441,125.190956 L90.5516254,125.190956 L90.5516254,100.323386 L19.304713,100.323386 L19.304713,38.367251 L30.6173776,27.0169323 L90.5516254,27.0169323 L90.5516254,14.0499203" id="Fill-25" fill="#E5E5D8" sketch:type="MSShapeGroup"></path>
                <path d="M90.5516254,0.0641434263 L24.3349728,0.0641434263 L0.737667674,27.3421116 L1.72076133,27.3421116 L14.9682054,14.0499203 L90.5516254,14.0499203 L90.5516254,0.0641434263" id="Fill-26" fill="#D8D8D8" sketch:type="MSShapeGroup"></path>
                <path d="M32.762284,30.6692032 L22.1970151,41.2693227 L22.1970151,94.7119522 L32.5502115,68.5495219 L32.762284,68.5495219 L32.762284,51.7963745 L25.0356737,51.7963745 L26.2386224,49.402988 L32.762284,49.402988 L32.762284,44.6912351 L28.6075529,44.6912351 L29.8113353,42.2972908 L32.762284,42.2972908 L32.762284,30.6692032" id="Fill-27" fill="#959595" sketch:type="MSShapeGroup"></path>
                <path d="M54.8186586,68.5495219 L32.5502115,68.5495219 L22.1970151,94.7119522 L22.1970151,100.323386 L19.9765076,100.323386 L90.5516254,100.323386 L90.5516254,92.7784462 L86.3335227,92.7784462 L86.3335227,84.7995618 L69.9892085,84.7995618 L69.9892085,92.7784462 L61.5485559,92.7784462 L61.5485559,84.7995618 L52.3774622,84.7995618 L52.3774622,77.835259 L52.5311662,77.835259 L54.8186586,68.5495219" id="Fill-28" fill="#C3C3C3" sketch:type="MSShapeGroup"></path>
                <path d="M90.5516254,60.4242231 L56.820423,60.4242231 L52.5311662,77.835259 L90.5516254,77.835259 L90.5516254,60.4242231" id="Fill-29" fill="#8BBEDA" sketch:type="MSShapeGroup"></path>
                <path d="M90.5516254,49.6768526 L84.9157221,49.6768526 L82.8033353,51.7963745 L90.5516254,51.7963745 L90.5516254,49.6768526 M67.4763021,49.402988 L26.2386224,49.402988 L25.0356737,51.7963745 L67.4763021,51.7963745 L67.4763021,49.402988" id="Fill-30" fill="#EDEDED" sketch:type="MSShapeGroup"></path>
                <path d="M74.4730272,42.2972908 L29.8113353,42.2972908 L28.6075529,44.6912351 L90.5516254,44.6912351 L74.4730272,44.6912351 L74.4730272,42.2972908" id="Fill-31" fill="#EDEDED" sketch:type="MSShapeGroup"></path>
                <path d="M90.5516254,44.6912351 L71.1393474,44.6912351 L67.4763021,48.3691633 L67.4763021,54.7865737 L82.2908036,54.7865737 L82.2908036,52.3103586 L84.9157221,49.6768526 L90.5516254,49.6768526 L90.5516254,44.6912351" id="Fill-32" fill="#697588" sketch:type="MSShapeGroup"></path>
                <path d="M84.4043021,38.5203586 C83.0181873,38.5203586 81.8894502,37.3889243 81.8894502,35.9967331 C81.8894502,34.6062151 83.0181873,33.4736653 84.4043021,33.4736653 C85.7915287,33.4736653 86.9191541,34.6062151 86.9191541,35.9967331 C86.9191541,37.3889243 85.7915287,38.5203586 84.4043021,38.5203586 L84.4043021,38.5203586 Z M84.4054139,31.2573705 C81.8007855,31.2573705 79.682006,33.3844223 79.682006,35.9967331 C79.682006,38.6101594 81.8007855,40.7355378 84.4054139,40.7355378 C87.0094864,40.7355378 89.1282659,38.6101594 89.1282659,35.9967331 C89.1282659,33.3844223 87.0094864,31.2573705 84.4054139,31.2573705 L84.4054139,31.2573705 Z M84.4054139,41.0252988 C81.6412447,41.0252988 79.3926647,38.7694024 79.3926647,35.9967331 C79.3926647,33.2232271 81.6412447,30.9670518 84.4054139,30.9670518 C87.1693051,30.9670518 89.4176073,33.2232271 89.4176073,35.9967331 C89.4176073,38.7694024 87.1693051,41.0252988 84.4054139,41.0252988 L84.4054139,41.0252988 Z M74.4730272,44.6912351 L90.5516254,44.6912351 L90.5516254,29.919004 L74.4730272,29.919004 L74.4730272,44.6912351 Z" id="Fill-33" fill="#A8A8A8" sketch:type="MSShapeGroup"></path>
                <path d="M84.4054139,40.7355378 C81.8007855,40.7355378 79.682006,38.6101594 79.682006,35.9967331 C79.682006,33.3844223 81.8007855,31.2573705 84.4054139,31.2573705 C87.0094864,31.2573705 89.1282659,33.3844223 89.1282659,35.9967331 C89.1282659,38.6101594 87.0094864,40.7355378 84.4054139,40.7355378 M84.4054139,30.9670518 C81.6412447,30.9670518 79.3926647,33.2232271 79.3926647,35.9967331 C79.3926647,38.7694024 81.6412447,41.0252988 84.4054139,41.0252988 C87.1693051,41.0252988 89.4176073,38.7694024 89.4176073,35.9967331 C89.4176073,33.2232271 87.1693051,30.9670518 84.4054139,30.9670518" id="Fill-34" fill="#FFFFFF" sketch:type="MSShapeGroup"></path>
                <path d="M84.4043021,33.7634263 C83.1774502,33.7634263 82.1785136,34.7657371 82.1785136,35.9967331 C82.1785136,37.2288446 83.1774502,38.2300398 84.4043021,38.2300398 C85.63171,38.2300398 86.6300906,37.2288446 86.6300906,35.9967331 C86.6300906,34.7657371 85.63171,33.7634263 84.4043021,33.7634263" id="Fill-35" fill="#A8A8A8" sketch:type="MSShapeGroup"></path>
                <path d="M84.4043021,38.2300398 C83.1774502,38.2300398 82.1785136,37.2288446 82.1785136,35.9967331 C82.1785136,34.7657371 83.1774502,33.7634263 84.4043021,33.7634263 C85.63171,33.7634263 86.6300906,34.7657371 86.6300906,35.9967331 C86.6300906,37.2288446 85.63171,38.2300398 84.4043021,38.2300398 M84.4043021,33.4736653 C83.0181873,33.4736653 81.8894502,34.6062151 81.8894502,35.9967331 C81.8894502,37.3889243 83.0181873,38.5203586 84.4043021,38.5203586 C85.7915287,38.5203586 86.9191541,37.3889243 86.9191541,35.9967331 C86.9191541,34.6062151 85.7915287,33.4736653 84.4043021,33.4736653" id="Fill-36" fill="#FFFFFF" sketch:type="MSShapeGroup"></path>
                <path d="M90.5516254,77.835259 L52.3774622,77.835259 L52.3774622,84.7995618 L61.5485559,84.7995618 L61.5485559,92.7784462 L69.9892085,92.7784462 L69.9892085,84.7995618 L86.3335227,84.7995618 L86.3335227,92.7784462 L90.5516254,92.7784462 L90.5516254,77.835259" id="Fill-37" fill="#697588" sketch:type="MSShapeGroup"></path>
                <path d="M74.4730272,27.0169323 L32.762284,27.0169323 L32.762284,30.6692032 L33.5099577,29.919004 L74.4730272,29.919004 L74.4730272,27.0169323" id="Fill-38" fill="#DFDFDF" sketch:type="MSShapeGroup"></path>
                <path d="M90.5516254,27.0169323 L30.6173776,27.0169323 L19.304713,38.367251 L30.6173776,27.0169323 L90.5516254,27.0169323" id="Fill-39" fill="#C9C9BD" sketch:type="MSShapeGroup"></path>
                <path d="M32.762284,27.0169323 L30.6173776,27.0169323 L19.304713,38.367251 L19.304713,100.323386 L19.9765076,100.323386 L22.1970151,94.7119522 L22.1970151,41.2693227 L32.762284,30.6692032 L32.762284,27.0169323" id="Fill-40" fill="#848484" sketch:type="MSShapeGroup"></path>
                <path d="M22.1970151,94.7119522 L19.9765076,100.323386 L22.1970151,100.323386 L22.1970151,94.7119522" id="Fill-41" fill="#ACACAC" sketch:type="MSShapeGroup"></path>
                <path d="M74.4730272,27.0169323 L90.5516254,27.0169323 L90.5516254,29.919004 L74.4730272,29.919004 L74.4730272,27.0169323 Z" id="Fill-42" fill="#959595" sketch:type="MSShapeGroup"></path>
                <path d="M140.480943,106.783745 L118.363698,106.783745 L118.363698,119.587331 L144.167057,119.587331 L140.480943,106.783745" id="Fill-43" fill="#FFFFFF" sketch:type="MSShapeGroup"></path>
                <path d="M147.570779,119.587331 L159.479915,119.587331 L159.479915,106.783745 L143.884665,106.783745 L147.570779,119.587331" id="Fill-44" fill="#FFFFFF" sketch:type="MSShapeGroup"></path>
                <path d="M121.198465,109.503705 L124.601076,109.503705 L124.601076,116.866813 L121.198465,116.866813 L121.198465,109.503705 Z" id="Fill-45" fill="#F6CF87" sketch:type="MSShapeGroup"></path>
                <path d="M126.474985,109.503705 L139.062864,109.503705 L139.062864,111.745657 L126.474985,111.745657 L126.474985,109.503705 Z" id="Fill-46" fill="#F6CF87" sketch:type="MSShapeGroup"></path>
                <path d="M126.474985,114.625139 L139.062864,114.625139 L139.062864,116.867092 L126.474985,116.867092 L126.474985,114.625139 Z" id="Fill-47" fill="#F6CF87" sketch:type="MSShapeGroup"></path>
                <path d="M155.744048,113.186096 C155.744048,115.05741 154.231468,116.5751 152.365341,116.5751 C150.50116,116.5751 148.987468,115.05741 148.987468,113.186096 C148.987468,111.312271 150.50116,109.796813 152.365341,109.796813 C154.231468,109.796813 155.744048,111.312271 155.744048,113.186096" id="Fill-48" fill="#C75C5C" sketch:type="MSShapeGroup"></path>
            </g>
        </g>
    </g>
</svg>