<?xml version="1.0" encoding="UTF-8" standalone="no"?>
<svg width="141px" height="140px" viewBox="0 0 141 140" version="1.1" xmlns="http://www.w3.org/2000/svg" xmlns:xlink="http://www.w3.org/1999/xlink" xmlns:sketch="http://www.bohemiancoding.com/sketch/ns">
    <!-- Generator: Sketch 3.2.2 (9983) - http://www.bohemiancoding.com/sketch -->
    <title>step3_icon</title>
    <desc>Created with Sketch.</desc>
    <defs></defs>
    <g id="Page-1" stroke="none" stroke-width="1" fill="none" fill-rule="evenodd" sketch:type="MSPage">
        <g id="Landing" sketch:type="MSArtboardGroup" transform="translate(-762.000000, -597.000000)">
            <g id="step3_icon" sketch:type="MSLayerGroup" transform="translate(762.000000, 597.000000)">
                <path d="M140.246,70.013 C140.246,108.672 108.904,140.013 70.246,140.013 C31.586,140.013 0.246,108.672 0.246,70.013 C0.246,31.353 31.586,0.013 70.246,0.013 C108.904,0.013 140.246,31.353 140.246,70.013" id="Fill-1" fill="#E0E0D1" sketch:type="MSShapeGroup"></path>
                <path d="M68.356,94.799 L58.606,63.602 L66.85,76.762 L66.879,76.79 L65.144,77.334 C64.602,77.502 64.15,77.884 63.886,78.386 C63.621,78.891 63.568,79.48 63.738,80.022 L68.356,94.799 M40.065,31.766 C38.956,31.766 37.759,31.946 36.472,32.348 C34.776,32.877 33.83,34.685 34.359,36.379 C34.791,37.758 36.065,38.637 37.436,38.637 C37.752,38.637 38.073,38.59 38.391,38.492 C39.125,38.262 39.785,38.162 40.377,38.162 C43.549,38.162 44.782,41.019 45.113,42.011 L62.209,96.713 C58.708,98.875 55.798,103.955 57.404,109.099 C58.951,114.052 63.478,117.381 68.664,117.381 C69.856,117.381 71.039,117.2 72.185,116.843 C75.196,115.899 77.658,113.844 79.121,111.053 C80.065,109.245 80.467,107.265 80.414,105.277 L98.293,99.689 C99.99,99.159 100.937,97.355 100.407,95.658 C99.977,94.282 98.704,93.398 97.337,93.398 C97.231,93.398 97.126,93.403 97.02,93.414 L99.981,92.5 C100.523,92.331 100.977,91.952 101.242,91.446 C101.506,90.943 101.56,90.354 101.391,89.811 L96.5,69.779 C96.214,68.86 95.361,68.276 94.446,68.276 C94.236,68.276 94.023,68.307 93.812,68.371 L73.787,73.319 L88.984,63.795 C89.99,63.166 90.293,61.843 89.663,60.836 L75.838,38.181 C75.433,37.533 74.734,37.177 74.019,37.177 C73.629,37.177 73.234,37.283 72.879,37.506 L53.083,50 L50.708,40.875 C49.514,37.053 46.082,31.766 40.065,31.766" id="Fill-2" fill="#CDCCBF" sketch:type="MSShapeGroup"></path>
                <path d="M68.997,72.543 L68.997,72.543 L89.364,59.777 L74.4,35.896 L54.031,48.663 L68.997,72.543" id="Fill-3" fill="#F6CF87" sketch:type="MSShapeGroup"></path>
                <path d="M68.997,72.543 L69.528,73.39 L89.895,60.624 C90.363,60.331 90.505,59.714 90.212,59.247 L75.248,35.366 C75.107,35.143 74.881,34.981 74.624,34.922 C74.367,34.863 74.093,34.909 73.869,35.049 L53.5,47.815 C53.032,48.108 52.891,48.726 53.184,49.194 L68.149,73.074 C68.289,73.297 68.517,73.459 68.773,73.518 C69.03,73.577 69.305,73.53 69.528,73.39 L68.997,72.543 L69.845,72.012 L55.409,48.979 L74.084,37.275 L87.986,59.461 L68.466,71.696 L68.997,72.543 L69.845,72.012 L68.997,72.543" id="Fill-4" fill="#F6CF87" sketch:type="MSShapeGroup"></path>
                <path d="M97.487,93.315 L69.979,101.915 L49.749,37.194 C49.713,37.091 49.188,35.399 47.796,33.622 C47.097,32.734 46.171,31.823 44.958,31.123 C43.749,30.424 42.246,29.955 40.515,29.957 C39.432,29.957 38.264,30.136 37.017,30.526 C36.227,30.774 35.786,31.615 36.033,32.406 C36.28,33.196 37.122,33.637 37.913,33.39 C38.901,33.081 39.762,32.957 40.515,32.957 C41.717,32.96 42.657,33.264 43.461,33.723 C44.661,34.41 45.545,35.506 46.108,36.454 C46.391,36.925 46.592,37.353 46.719,37.654 C46.782,37.804 46.826,37.922 46.854,37.998 L46.883,38.079 L46.887,38.093 L47.344,37.945 L46.886,38.089 L46.887,38.093 L47.344,37.945 L46.886,38.089 L67.562,104.241 C67.681,104.619 67.948,104.939 68.298,105.123 C68.648,105.306 69.065,105.343 69.441,105.226 L98.382,96.179 C99.173,95.932 99.613,95.09 99.366,94.3 C99.119,93.509 98.277,93.068 97.487,93.315" id="Fill-5" fill="#FFFFFF" sketch:type="MSShapeGroup"></path>
                <path d="M72.547,97.01 L72.547,97.01 L101.488,87.962 L95.026,67.292 L66.087,76.337 L72.547,97.01" id="Fill-6" fill="#E0995E" sketch:type="MSShapeGroup"></path>
                <path d="M72.547,97.01 L72.846,97.965 L101.787,88.916 C102.038,88.838 102.252,88.659 102.374,88.426 C102.496,88.192 102.521,87.915 102.442,87.664 L95.98,66.994 C95.816,66.466 95.255,66.173 94.729,66.337 L65.789,75.383 C65.262,75.548 64.968,76.108 65.133,76.636 L71.593,97.309 C71.671,97.56 71.85,97.774 72.083,97.896 C72.316,98.018 72.594,98.043 72.846,97.965 L72.547,97.01 L73.501,96.712 L67.34,76.994 L94.37,68.545 L100.235,87.306 L72.248,96.056 L72.547,97.01 L73.501,96.712 L72.547,97.01" id="Fill-7" fill="#E0995E" sketch:type="MSShapeGroup"></path>
                <path d="M77.264,101.209 C78.689,105.778 76.144,110.634 71.58,112.061 C67.012,113.489 62.151,110.945 60.725,106.378 C59.297,101.811 61.842,96.954 66.41,95.526 C70.976,94.096 75.836,96.64 77.264,101.209" id="Fill-8" fill="#F6CF87" sketch:type="MSShapeGroup"></path>
                <path d="M77.264,101.209 L75.832,101.656 C76.055,102.37 76.159,103.088 76.16,103.795 C76.158,106.843 74.196,109.674 71.132,110.63 C70.418,110.853 69.698,110.958 68.991,110.958 C65.943,110.958 63.111,108.996 62.156,105.931 C61.933,105.216 61.828,104.498 61.827,103.791 C61.829,100.745 63.79,97.914 66.857,96.957 C67.573,96.733 68.293,96.628 69,96.628 C72.045,96.629 74.876,98.59 75.832,101.656 L78.695,100.762 C77.334,96.414 73.329,93.626 69,93.628 C67.993,93.627 66.969,93.779 65.962,94.094 C61.614,95.456 58.826,99.461 58.827,103.791 C58.827,104.797 58.978,105.82 59.293,106.826 C60.654,111.173 64.66,113.959 68.991,113.958 C69.997,113.958 71.02,113.808 72.027,113.493 C76.374,112.131 79.161,108.126 79.16,103.795 C79.16,102.79 79.01,101.768 78.695,100.762 L77.264,101.209" id="Fill-9" fill="#455368" sketch:type="MSShapeGroup"></path>
            </g>
        </g>
    </g>
</svg>