<?xml version="1.0" encoding="UTF-8" standalone="no"?>
<svg width="14px" height="14px" viewBox="0 0 14 14" version="1.1" xmlns="http://www.w3.org/2000/svg" xmlns:xlink="http://www.w3.org/1999/xlink" xmlns:sketch="http://www.bohemiancoding.com/sketch/ns">
    <!-- Generator: Sketch 3.3.2 (12043) - http://www.bohemiancoding.com/sketch -->
    <title>Icons/Close Copy</title>
    <desc>Created with Sketch.</desc>
    <defs></defs>
    <g id="Page-1" stroke="none" stroke-width="1" fill="none" fill-rule="evenodd" sketch:type="MSPage">
        <g id="01g-Create-order" sketch:type="MSArtboardGroup" transform="translate(-359.000000, -1238.000000)" fill="#FF7272">
            <g id="Group" sketch:type="MSLayerGroup" transform="translate(42.000000, 1158.000000)">
                <g id="Icons/Close-Copy" transform="translate(318.000000, 80.000000)" sketch:type="MSShapeGroup">
                    <path d="M13.0254079,10.9514995 C13.0254079,10.6729015 12.9140796,10.3943035 12.7136887,10.193713 L9.44063795,6.91740072 L12.7136887,3.64108846 C12.9140796,3.44049791 13.0254079,3.16189993 13.0254079,2.88330195 C13.0254079,2.60470397 12.9140796,2.32610599 12.7136887,2.12551544 L11.1996244,0.609942421 C10.9992336,0.409351874 10.7209129,0.297912681 10.4425923,0.297912681 C10.1642716,0.297912681 9.88595098,0.409351874 9.68556012,0.609942421 L6.41250934,3.88625468 L3.13945857,0.609942421 C2.9390677,0.409351874 2.66074706,0.297912681 2.38242641,0.297912681 C2.10410577,0.297912681 1.82578513,0.409351874 1.62539426,0.609942421 L0.111329956,2.12551544 C-0.0890609074,2.32610599 -0.200389165,2.60470397 -0.200389165,2.88330195 C-0.200389165,3.16189993 -0.0890609074,3.44049791 0.111329956,3.64108846 L3.38438073,6.91740072 L0.111329956,10.193713 C-0.0890609074,10.3943035 -0.200389165,10.6729015 -0.200389165,10.9514995 C-0.200389165,11.2300975 -0.0890609074,11.5086955 0.111329956,11.709286 L1.62539426,13.224859 C1.82578513,13.4254496 2.10410577,13.5368888 2.38242641,13.5368888 C2.66074706,13.5368888 2.9390677,13.4254496 3.13945857,13.224859 L6.41250934,9.94854677 L9.68556012,13.224859 C9.88595098,13.4254496 10.1642716,13.5368888 10.4425923,13.5368888 C10.7209129,13.5368888 10.9992336,13.4254496 11.1996244,13.224859 L12.7136887,11.709286 C12.9140796,11.5086955 13.0254079,11.2300975 13.0254079,10.9514995 L13.0254079,10.9514995 Z" id="Icons/Close"></path>
                </g>
            </g>
        </g>
    </g>
</svg>