<?xml version="1.0" encoding="UTF-8" standalone="no"?>
<svg width="141px" height="140px" viewBox="0 0 141 140" version="1.1" xmlns="http://www.w3.org/2000/svg" xmlns:xlink="http://www.w3.org/1999/xlink" xmlns:sketch="http://www.bohemiancoding.com/sketch/ns">
    <!-- Generator: Sketch 3.2.2 (9983) - http://www.bohemiancoding.com/sketch -->
    <title>step2_icon</title>
    <desc>Created with Sketch.</desc>
    <defs></defs>
    <g id="Page-1" stroke="none" stroke-width="1" fill="none" fill-rule="evenodd" sketch:type="MSPage">
        <g id="Landing" sketch:type="MSArtboardGroup" transform="translate(-442.000000, -597.000000)">
            <g id="step2_icon" sketch:type="MSLayerGroup" transform="translate(442.000000, 597.000000)">
                <path d="M70.666,140 C32.006,140 0.667,108.66 0.667,70 C0.667,31.34 32.006,0 70.666,0 C109.326,0 140.666,31.34 140.666,70 C140.666,108.66 109.326,140 70.666,140 Z" id="Fill-1" fill="#F6CF87" sketch:type="MSShapeGroup"></path>
                <path d="M68.767,51.035 L56.593,51.781 L56.593,55.337 C56.593,55.337 56.45,56.066 57.051,56.71 C57.55,57.244 63.513,62.563 64.196,72.001 C64.196,72.001 64.117,72.513 64.482,72.93 C64.664,73.137 64.874,73.249 65.062,73.252 L65.071,73.252 C65.127,73.252 65.368,73.249 65.725,73.247 C66.086,73.245 66.565,73.242 67.091,73.242 C67.616,73.242 68.187,73.245 68.731,73.252 L68.767,51.035 M69.527,50.988 L69.132,51.013 L69.525,51.039 L69.527,50.988" id="Fill-2" fill="#DCBA79" sketch:type="MSShapeGroup"></path>
                <path d="M101.439,118.454 L101.417,118.454 L101.439,118.454 M101.272,115.333 L39.894,115.333 C37.708,115.333 35.93,117.112 35.93,119.294 C35.93,121.472 37.669,123.171 39.894,123.171 L104.67,123.171 L104.67,120.05 L39.894,120.05 C39.474,120.05 39.05,119.791 39.05,119.294 C39.05,118.833 39.43,118.454 39.894,118.454 L101.272,118.454 L101.272,115.333" id="Fill-3" fill="#DCBA79" sketch:type="MSShapeGroup"></path>
                <path d="M101.439,110.626 L101.439,113.743 L101.302,113.743 C101.754,113.759 102.114,114.132 102.114,114.583 C102.114,115.077 101.692,115.333 101.272,115.333 L101.272,118.457 C101.32,118.457 101.369,118.456 101.417,118.454 L101.439,118.454 C103.582,118.371 105.236,116.7 105.236,114.583 C105.236,112.457 103.546,110.713 101.439,110.626 M101.272,110.622 L101.272,110.624 L101.396,110.624 C101.355,110.623 101.312,110.622 101.272,110.622" id="Fill-4" fill="#DCBA79" sketch:type="MSShapeGroup"></path>
                <path d="M101.355,105.904 L39.894,105.904 C37.708,105.904 35.93,107.683 35.93,109.868 C35.93,112.042 37.669,113.743 39.894,113.743 L101.439,113.743 L101.439,110.624 L39.894,110.624 C39.474,110.624 39.05,110.361 39.05,109.868 C39.05,109.398 39.43,109.022 39.894,109.022 L101.272,109.022 L101.272,105.908 C101.3,105.908 101.327,105.907 101.355,105.904" id="Fill-5" fill="#DCBA79" sketch:type="MSShapeGroup"></path>
                <path d="M101.439,101.196 L101.439,104.313 L101.311,104.313 C101.759,104.333 102.114,104.704 102.114,105.157 C102.114,105.618 101.747,105.873 101.355,105.904 C101.327,105.907 101.3,105.908 101.272,105.908 L101.272,109.026 C103.495,109.026 105.236,107.329 105.236,105.157 C105.236,103.028 103.546,101.284 101.439,101.196" id="Fill-6" fill="#DCBA79" sketch:type="MSShapeGroup"></path>
                <path d="M101.439,99.593 C101.413,99.594 101.388,99.595 101.362,99.596 L101.439,99.596 L101.439,99.593 M101.327,96.475 L39.894,96.475 C37.708,96.475 35.93,98.251 35.93,100.439 C35.93,102.611 37.669,104.313 39.894,104.313 L101.439,104.313 L101.439,101.192 L39.894,101.192 C39.474,101.192 39.05,100.932 39.05,100.439 C39.05,99.975 39.43,99.596 39.894,99.596 L101.272,99.596 L101.272,96.477 C101.29,96.477 101.309,96.476 101.327,96.475" id="Fill-7" fill="#DCBA79" sketch:type="MSShapeGroup"></path>
                <path d="M101.44,91.767 L101.439,94.883 L101.272,94.883 L101.272,94.884 C101.737,94.884 102.114,95.261 102.114,95.726 C102.114,96.194 101.729,96.453 101.327,96.475 C101.309,96.476 101.29,96.477 101.272,96.477 L101.272,99.597 C101.302,99.597 101.332,99.596 101.362,99.596 C101.388,99.595 101.413,99.594 101.439,99.593 C103.582,99.511 105.236,97.842 105.236,95.726 C105.236,93.596 103.547,91.856 101.44,91.767" id="Fill-8" fill="#DCBA79" sketch:type="MSShapeGroup"></path>
                <path d="M69.678,76.51 L66.556,76.51 L66.556,91.009 C66.556,93.184 68.295,94.883 70.519,94.883 L101.439,94.883 L101.44,91.767 L101.44,91.762 L70.52,91.762 C70.101,91.762 69.678,91.505 69.678,91.013 L69.678,76.51" id="Fill-9" fill="#DCBA79" sketch:type="MSShapeGroup"></path>
                <path d="M69.525,51.039 L68.731,73.252 C69.276,73.245 69.829,73.242 70.33,73.242 C70.831,73.242 71.279,73.245 71.616,73.247 C71.948,73.249 72.17,73.252 72.223,73.252 L72.231,73.252 C72.42,73.249 72.63,73.137 72.811,72.93 C73.177,72.513 73.098,72.001 73.098,72.001 C73.781,62.563 79.744,57.244 80.242,56.71 C80.844,56.066 80.701,55.337 80.701,55.337 L80.701,51.781 L69.525,51.039 M68.767,50.988 L68.767,51.035 L69.132,51.013 L68.767,50.988" id="Fill-10" fill="#DCBA79" sketch:type="MSShapeGroup"></path>
                <path d="M69.132,51.013 L68.767,51.035 L68.731,73.252 L69.525,51.039 L69.132,51.013" id="Fill-11" fill="#C6A76D" sketch:type="MSShapeGroup"></path>
                <path d="M77.469,17.231 C77.358,15.337 75.716,13.789 73.819,13.789 L63.475,13.789 C61.579,13.789 59.935,15.337 59.823,17.231 L56.578,50.324 L80.716,50.324 L77.469,17.231" id="Fill-12" fill="#4F5D73" sketch:type="MSShapeGroup"></path>
                <path d="M56.578,50.324 L56.578,53.772 L56.582,53.772 C61.686,57.894 65.074,64.054 65.515,71.013 L71.736,71.013 C72.179,64.054 75.566,57.894 80.672,53.772 L80.716,53.772 L80.716,50.324 L56.578,50.324" id="Fill-13" fill="#E0E0D1" sketch:type="MSShapeGroup"></path>
                <path d="M104.67,121.171 L39.894,121.171 C37.669,121.171 35.93,119.472 35.93,117.294 C35.93,115.112 37.708,113.333 39.894,113.333 L101.439,113.333 L101.439,116.454 L39.894,116.454 C39.43,116.454 39.05,116.833 39.05,117.294 C39.05,117.79 39.474,118.05 39.894,118.05 L104.67,118.05 L104.67,121.171" id="Fill-14" fill="#C75C5C" sketch:type="MSShapeGroup"></path>
                <path d="M101.272,116.457 L101.272,113.333 C101.692,113.333 102.114,113.077 102.114,112.583 C102.114,112.122 101.737,111.742 101.272,111.742 L101.272,108.622 C103.456,108.622 105.236,110.401 105.236,112.583 C105.236,114.754 103.495,116.457 101.272,116.457" id="Fill-15" fill="#C75C5C" sketch:type="MSShapeGroup"></path>
                <path d="M101.439,111.743 L39.894,111.743 C37.669,111.743 35.93,110.042 35.93,107.868 C35.93,105.683 37.708,103.904 39.894,103.904 L101.439,103.904 L101.439,107.022 L39.894,107.022 C39.43,107.022 39.05,107.398 39.05,107.868 C39.05,108.361 39.474,108.624 39.894,108.624 L101.439,108.624 L101.439,111.743" id="Fill-16" fill="#C75C5C" sketch:type="MSShapeGroup"></path>
                <path d="M101.272,107.026 L101.272,103.908 C101.692,103.908 102.114,103.65 102.114,103.157 C102.114,102.69 101.737,102.312 101.272,102.312 L101.272,99.193 C103.456,99.193 105.236,100.973 105.236,103.157 C105.236,105.329 103.495,107.026 101.272,107.026" id="Fill-17" fill="#C75C5C" sketch:type="MSShapeGroup"></path>
                <path d="M101.439,102.313 L39.894,102.313 C37.669,102.313 35.93,100.611 35.93,98.439 C35.93,96.252 37.708,94.475 39.894,94.475 L101.439,94.475 L101.439,97.596 L39.894,97.596 C39.43,97.596 39.05,97.975 39.05,98.439 C39.05,98.932 39.474,99.192 39.894,99.192 L101.439,99.192 L101.439,102.313" id="Fill-18" fill="#C75C5C" sketch:type="MSShapeGroup"></path>
                <path d="M101.272,97.597 L101.272,94.477 C101.692,94.477 102.114,94.216 102.114,93.726 C102.114,93.261 101.737,92.884 101.272,92.884 L101.272,89.764 C103.456,89.764 105.236,91.54 105.236,93.726 C105.236,95.897 103.495,97.597 101.272,97.597" id="Fill-19" fill="#C75C5C" sketch:type="MSShapeGroup"></path>
                <path d="M101.439,92.883 L70.519,92.883 C68.295,92.883 66.556,91.184 66.556,89.009 L66.556,74.51 L69.678,74.51 L69.678,89.013 C69.678,89.505 70.101,89.762 70.52,89.762 L101.44,89.762 L101.439,92.883" id="Fill-20" fill="#C75C5C" sketch:type="MSShapeGroup"></path>
            </g>
        </g>
    </g>
</svg>