<?xml version="1.0" encoding="UTF-8" standalone="no"?>
<svg width="141px" height="140px" viewBox="0 0 141 140" version="1.1" xmlns="http://www.w3.org/2000/svg" xmlns:xlink="http://www.w3.org/1999/xlink" xmlns:sketch="http://www.bohemiancoding.com/sketch/ns">
    <!-- Generator: Sketch 3.2.2 (9983) - http://www.bohemiancoding.com/sketch -->
    <title>step1_icon</title>
    <desc>Created with Sketch.</desc>
    <defs></defs>
    <g id="Page-1" stroke="none" stroke-width="1" fill="none" fill-rule="evenodd" sketch:type="MSPage">
        <g id="Landing" sketch:type="MSArtboardGroup" transform="translate(-122.000000, -597.000000)">
            <g id="step1_icon" sketch:type="MSLayerGroup" transform="translate(122.000000, 597.000000)">
                <path d="M140.358,70 C140.358,108.659 109.017,140 70.358,140 C31.699,140 0.358,108.659 0.358,70 C0.358,31.341 31.699,0 70.358,0 C109.017,0 140.358,31.341 140.358,70" id="Fill-1" fill="#77B3D4" sketch:type="MSShapeGroup"></path>
                <path d="M70.358,19.818 C59.773,19.818 50.914,27.109 48.464,36.937 C41.681,37.964 36.476,43.805 36.476,50.877 C36.476,58.674 42.796,64.994 50.593,64.994 L61.887,64.994 C63.447,64.994 64.711,63.731 64.711,62.17 L64.711,54.406 C64.711,53.237 63.762,52.288 62.593,52.288 L58.272,52.288 C56.193,52.288 55.614,50.863 56.981,49.119 L67.87,35.242 C68.554,34.371 69.456,33.935 70.358,33.935 C71.26,33.935 72.161,34.371 72.845,35.242 L83.734,49.119 C85.103,50.863 84.522,52.288 82.443,52.288 L78.123,52.288 C76.954,52.288 76.005,53.237 76.005,54.406 L76.005,62.17 C76.005,63.731 77.268,64.994 78.829,64.994 L92.946,64.994 C99.183,64.994 104.24,59.937 104.24,53.7 C104.24,47.463 99.183,42.406 92.946,42.406 C92.946,29.93 82.833,19.818 70.358,19.818" id="Fill-2" fill="#6FA4C2" sketch:type="MSShapeGroup"></path>
                <path d="M92.946,39.582 C92.946,27.107 82.833,16.994 70.358,16.994 C59.773,16.994 50.914,24.286 48.464,34.113 C41.681,35.141 36.476,40.982 36.476,48.053 C36.476,55.851 42.796,62.17 50.593,62.17 L61.887,62.17 C63.447,62.17 64.711,60.908 64.711,59.347 L64.711,51.582 C64.711,50.413 63.762,49.465 62.593,49.465 L58.272,49.465 C56.193,49.465 55.614,48.039 56.981,46.295 L67.87,32.419 C69.238,30.675 71.478,30.675 72.845,32.419 L83.734,46.295 C85.103,48.039 84.522,49.465 82.443,49.465 L78.123,49.465 C76.954,49.465 76.005,50.413 76.005,51.582 L76.005,59.347 C76.005,60.908 77.268,62.17 78.829,62.17 L92.946,62.17 C99.183,62.17 104.24,57.114 104.24,50.877 C104.24,44.639 99.183,39.582 92.946,39.582" id="Fill-3" fill="#FFFFFF" sketch:type="MSShapeGroup"></path>
                <path d="M53.052,79.694 L53.052,116.47 C53.052,118.263 54.504,119.715 56.296,119.715 L84.419,119.715 C86.212,119.715 87.664,118.263 87.664,116.47 L87.664,114.307 C87.664,116.099 86.212,117.551 84.419,117.551 L56.296,117.551 C54.504,117.551 53.052,116.099 53.052,114.307 L53.052,79.694" id="Fill-4" fill="#6695B0" sketch:type="MSShapeGroup"></path>
                <path d="M74.685,84.02 L74.685,74.286 L56.296,74.286 C54.504,74.286 53.052,75.738 53.052,77.531 L53.052,114.307 C53.052,116.099 54.504,117.551 56.296,117.551 L84.419,117.551 C86.212,117.551 87.664,116.099 87.664,114.307 L87.664,87.266 L77.93,87.266 C76.137,87.266 74.685,85.814 74.685,84.02" id="Fill-5" fill="#E8E8DF" sketch:type="MSShapeGroup"></path>
                <path d="M60.318,102.522 C60.029,102.522 59.78,102.428 59.57,102.242 C59.36,102.056 59.255,101.795 59.255,101.459 C59.255,101.174 59.355,100.93 59.556,100.725 C59.756,100.52 60.003,100.418 60.297,100.418 C60.591,100.418 60.841,100.519 61.049,100.722 C61.256,100.925 61.359,101.17 61.359,101.459 C61.359,101.79 61.256,102.05 61.049,102.239 C60.841,102.428 60.598,102.522 60.318,102.522" id="Fill-6" fill="#4F5D73" sketch:type="MSShapeGroup"></path>
                <path d="M69.68,100.025 C69.68,100.553 69.551,101.004 69.295,101.379 C69.039,101.754 68.66,102.038 68.159,102.232 C67.658,102.425 67.049,102.522 66.331,102.522 C65.645,102.522 65.058,102.417 64.569,102.207 C64.08,101.997 63.718,101.736 63.485,101.421 C63.252,101.106 63.135,100.79 63.135,100.473 C63.135,100.263 63.21,100.084 63.359,99.935 C63.508,99.786 63.697,99.711 63.926,99.711 C64.126,99.711 64.28,99.76 64.387,99.858 C64.494,99.956 64.597,100.093 64.695,100.27 C64.89,100.611 65.124,100.865 65.397,101.033 C65.67,101.2 66.042,101.284 66.513,101.284 C66.894,101.284 67.208,101.2 67.453,101.029 C67.697,100.859 67.82,100.664 67.82,100.445 C67.82,100.11 67.693,99.865 67.439,99.711 C67.185,99.557 66.767,99.41 66.184,99.271 C65.527,99.107 64.992,98.937 64.579,98.757 C64.167,98.578 63.837,98.341 63.59,98.047 C63.343,97.753 63.22,97.392 63.22,96.963 C63.22,96.581 63.334,96.22 63.562,95.88 C63.79,95.54 64.127,95.268 64.572,95.065 C65.018,94.863 65.555,94.761 66.184,94.761 C66.678,94.761 67.122,94.813 67.516,94.915 C67.91,95.018 68.238,95.155 68.502,95.327 C68.765,95.499 68.965,95.691 69.103,95.9 C69.24,96.11 69.309,96.315 69.309,96.516 C69.309,96.735 69.236,96.914 69.089,97.055 C68.942,97.194 68.733,97.264 68.463,97.264 C68.268,97.264 68.101,97.208 67.963,97.096 C67.826,96.984 67.669,96.817 67.491,96.593 C67.347,96.407 67.177,96.257 66.981,96.145 C66.785,96.034 66.519,95.978 66.184,95.978 C65.839,95.978 65.552,96.051 65.324,96.198 C65.095,96.345 64.981,96.527 64.981,96.747 C64.981,96.947 65.065,97.112 65.233,97.24 C65.401,97.368 65.627,97.474 65.911,97.558 C66.196,97.642 66.587,97.744 67.086,97.865 C67.678,98.01 68.162,98.183 68.537,98.383 C68.912,98.583 69.196,98.82 69.39,99.093 C69.583,99.366 69.68,99.676 69.68,100.025" id="Fill-7" fill="#4F5D73" sketch:type="MSShapeGroup"></path>
                <path d="M71.399,94.929 L71.609,94.929 L71.609,93.782 C71.609,93.475 71.618,93.234 71.634,93.059 C71.65,92.884 71.695,92.733 71.77,92.607 C71.845,92.477 71.952,92.372 72.092,92.29 C72.231,92.209 72.388,92.168 72.56,92.168 C72.803,92.168 73.022,92.258 73.217,92.44 C73.348,92.561 73.431,92.71 73.465,92.884 C73.5,93.059 73.518,93.307 73.518,93.628 L73.518,94.929 L74.217,94.929 C74.488,94.929 74.694,94.993 74.836,95.122 C74.978,95.25 75.049,95.414 75.049,95.614 C75.049,95.871 74.948,96.05 74.745,96.152 C74.543,96.255 74.252,96.306 73.875,96.306 L73.518,96.306 L73.518,99.816 C73.518,100.114 73.529,100.344 73.55,100.505 C73.571,100.666 73.627,100.796 73.717,100.897 C73.808,100.997 73.956,101.046 74.161,101.046 C74.273,101.046 74.425,101.027 74.616,100.987 C74.807,100.948 74.956,100.928 75.063,100.928 C75.217,100.928 75.355,100.99 75.479,101.113 C75.603,101.237 75.665,101.389 75.665,101.571 C75.665,101.878 75.497,102.114 75.161,102.277 C74.825,102.44 74.343,102.522 73.714,102.522 C73.117,102.522 72.665,102.422 72.357,102.221 C72.05,102.02 71.848,101.743 71.752,101.389 C71.657,101.035 71.609,100.562 71.609,99.97 L71.609,96.306 L71.358,96.306 C71.083,96.306 70.873,96.241 70.728,96.11 C70.584,95.98 70.512,95.814 70.512,95.614 C70.512,95.414 70.587,95.25 70.739,95.122 C70.89,94.993 71.11,94.929 71.399,94.929" id="Fill-8" fill="#4F5D73" sketch:type="MSShapeGroup"></path>
                <path d="M76.364,101.361 L76.364,93.083 C76.364,92.701 76.449,92.412 76.619,92.216 C76.789,92.02 77.019,91.922 77.308,91.922 C77.596,91.922 77.83,92.02 78.006,92.213 C78.184,92.406 78.272,92.696 78.272,93.083 L78.272,101.361 C78.272,101.748 78.183,102.038 78.003,102.232 C77.824,102.425 77.592,102.522 77.308,102.522 C77.028,102.522 76.801,102.422 76.626,102.221 C76.451,102.02 76.364,101.734 76.364,101.361" id="Fill-9" fill="#4F5D73" sketch:type="MSShapeGroup"></path>
                <path d="M75.842,86.506 C76.406,86.981 77.135,87.266 77.93,87.266 L87.664,87.266 L87.664,97.001 L87.664,87.265 L75.842,86.506" id="Fill-10" fill="#6FA4C2" sketch:type="MSShapeGroup"></path>
                <path d="M75.783,86.502 L87.664,97.001 L87.664,87.266 L77.93,87.266 C77.135,87.266 76.406,86.981 75.842,86.506 L75.783,86.502" id="Fill-11" fill="#D5D4CC" sketch:type="MSShapeGroup"></path>
                <path d="M74.685,74.286 L74.685,84.02 C74.685,85.814 76.137,87.266 77.93,87.266 L87.664,87.266 L74.685,74.286" id="Fill-12" fill="#FFFFFF" sketch:type="MSShapeGroup"></path>
            </g>
        </g>
    </g>
</svg>