<?xml version="1.0" encoding="UTF-8" standalone="no"?>
<svg width="69px" height="90px" viewBox="0 0 69 90" version="1.1" xmlns="http://www.w3.org/2000/svg" xmlns:xlink="http://www.w3.org/1999/xlink" xmlns:sketch="http://www.bohemiancoding.com/sketch/ns">
    <!-- Generator: Sketch 3.3.2 (12043) - http://www.bohemiancoding.com/sketch -->
    <title>icon_stlfile</title>
    <desc>Created with Sketch.</desc>
    <defs></defs>
    <g id="Page-1" stroke="none" stroke-width="1" fill="none" fill-rule="evenodd" sketch:type="MSPage">
        <g id="01a-Create-order" sketch:type="MSArtboardGroup" transform="translate(-198.000000, -474.000000)">
            <g id="Rectangle-45-+-Group-+-start-printing-7" sketch:type="MSLayerGroup" transform="translate(42.000000, 394.000000)">
                <g id="icon_stlfile" transform="translate(156.500000, 80.000000)" sketch:type="MSShapeGroup">
                    <path d="M0.349444444,83.1105106 C0.349444444,86.6202128 3.17277778,89.4624255 6.65722222,89.4624255 L61.3408333,89.4624255 C64.8272222,89.4624255 67.6505556,86.6202128 67.6505556,83.1105106 L67.6505556,78.8765532 C67.6505556,82.3842979 64.8272222,85.2265106 61.3408333,85.2265106 L6.65722222,85.2265106 C3.17277778,85.2265106 0.349444444,82.3842979 0.349444444,78.8765532 L0.349444444,11.1234468 L0.349444444,83.1105106 Z" id="Fill-174" fill-opacity="0.1" fill="#4A4A4A"></path>
                    <path d="M42.4136111,19.5913617 L42.4136111,0.537574468 L6.65722222,0.537574468 C3.17277778,0.537574468 0.349444444,3.37978723 0.349444444,6.88948936 L0.349444444,78.8765532 C0.349444444,82.3842979 3.17277778,85.2265106 6.65722222,85.2265106 L61.3408333,85.2265106 C64.8272222,85.2265106 67.6505556,82.3842979 67.6505556,78.8765532 L67.6505556,25.945234 L48.7233333,25.945234 C45.2369444,25.945234 42.4136111,23.1030213 42.4136111,19.5913617" id="Fill-50" fill="#E8E8DF"></path>
                    <path d="M32.6816667,50.9202979 C32.6816667,51.9538298 32.4308333,52.8366383 31.9330556,53.5706809 C31.4352778,54.3047234 30.6983333,54.8606383 29.7241667,55.240383 C28.75,55.6181702 27.5658333,55.8080426 26.1697222,55.8080426 C24.8358333,55.8080426 23.6944444,55.6025106 22.7436111,55.1914468 C21.7927778,54.780383 21.0888889,54.2694894 20.6358333,53.6528936 C20.1827778,53.0362979 19.9552778,52.4177447 19.9552778,51.797234 C19.9552778,51.3861702 20.1011111,51.0357872 20.3908333,50.7441277 C20.6805556,50.4524681 21.0480556,50.3056596 21.4933333,50.3056596 C21.8822222,50.3056596 22.1816667,50.4015745 22.3897222,50.5934043 C22.5977778,50.785234 22.7980556,51.0534043 22.9886111,51.3998723 C23.3677778,52.0673617 23.8227778,52.5645532 24.3536111,52.8934043 C24.8844444,53.2202979 25.6077778,53.3847234 26.5236111,53.3847234 C27.2644444,53.3847234 27.875,53.2202979 28.3513889,52.8855745 C28.8258333,52.5528085 29.065,52.1711064 29.065,51.7424255 C29.065,51.0866809 28.8180556,50.6071064 28.3241667,50.3056596 C27.8302778,50.0042128 27.0175,49.7164681 25.8838889,49.444383 C24.6063889,49.1233617 23.5661111,48.7905957 22.7630556,48.4382553 C21.9619444,48.0878723 21.3202778,47.6239574 20.84,47.0484681 C20.3597222,46.4729787 20.1205556,45.7663404 20.1205556,44.9265957 C20.1205556,44.1788511 20.3422222,43.4722128 20.7855556,42.8066809 C21.2288889,42.1411489 21.8841667,41.6087234 22.7494444,41.2113617 C23.6166667,40.8159574 24.6608333,40.6162979 25.8838889,40.6162979 C26.8444444,40.6162979 27.7077778,40.7180851 28.4738889,40.9177447 C29.24,41.1193617 29.8777778,41.3875319 30.3911111,41.7242128 C30.9025,42.0608936 31.2913889,42.4367234 31.5597222,42.8458298 C31.8261111,43.2568936 31.9602778,43.6581702 31.9602778,44.051617 C31.9602778,44.4802979 31.8183333,44.8306809 31.5325,45.1066809 C31.2466667,45.378766 30.8402778,45.5157872 30.3152778,45.5157872 C29.9361111,45.5157872 29.6113889,45.4061702 29.3430556,45.1869362 C29.0766667,44.9677021 28.7713889,44.6408085 28.4252778,44.2023404 C28.1452778,43.8382553 27.8147222,43.5446383 27.4336111,43.3254043 C27.0525,43.1081277 26.5352778,42.9985106 25.8838889,42.9985106 C25.2130556,42.9985106 24.655,43.1414043 24.2116667,43.4291489 C23.7663889,43.7168936 23.5447222,44.0731489 23.5447222,44.5037872 C23.5447222,44.8952766 23.7080556,45.2182553 24.0347222,45.4688085 C24.3613889,45.7193617 24.8008333,45.9268511 25.3530556,46.0912766 C25.9072222,46.2557021 26.6675,46.4553617 27.6377778,46.6922128 C28.7888889,46.9760426 29.73,47.3146809 30.4591667,47.7061702 C31.1883333,48.0976596 31.7405556,48.5615745 32.1177778,49.0959574 C32.4930556,49.6303404 32.6816667,50.2371489 32.6816667,50.9202979" id="Fill-52" fill="#4F5D73"></path>
                    <path d="M36.0241667,40.9451489 L36.4325,40.9451489 L36.4325,38.6999574 C36.4325,38.0990213 36.45,37.6272766 36.4811111,37.2847234 C36.5122222,36.9421702 36.5997222,36.6465957 36.7455556,36.3999574 C36.8913889,36.1454894 37.0994444,35.9399574 37.3716667,35.7794468 C37.6419444,35.6208936 37.9472222,35.5406383 38.2816667,35.5406383 C38.7541667,35.5406383 39.18,35.7168085 39.5591667,36.0730638 C39.8138889,36.3099149 39.9752778,36.6015745 40.0413889,36.9421702 C40.1094444,37.2847234 40.1444444,37.7701702 40.1444444,38.3985106 L40.1444444,40.9451489 L41.5036111,40.9451489 C42.0305556,40.9451489 42.4311111,41.0704255 42.7072222,41.3229362 C42.9833333,41.5734894 43.1213889,41.8945106 43.1213889,42.286 C43.1213889,42.7890638 42.925,43.1394468 42.5302778,43.3391064 C42.1375,43.5407234 41.5716667,43.6405532 40.8386111,43.6405532 L40.1444444,43.6405532 L40.1444444,50.5111915 C40.1444444,51.0945106 40.1658333,51.5447234 40.2066667,51.8598723 C40.2475,52.1750213 40.3563889,52.4294894 40.5313889,52.6271915 C40.7083333,52.8229362 40.9961111,52.9188511 41.3947222,52.9188511 C41.6125,52.9188511 41.9080556,52.8816596 42.2794444,52.8033617 C42.6508333,52.7270213 42.9405556,52.6878723 43.1486111,52.6878723 C43.4480556,52.6878723 43.7163889,52.809234 43.9575,53.05 C44.1986111,53.2927234 44.3191667,53.5902553 44.3191667,53.9465106 C44.3191667,54.5474468 43.9925,55.0094043 43.3391667,55.3284681 C42.6858333,55.6475319 41.7486111,55.8080426 40.5255556,55.8080426 C39.3647222,55.8080426 38.4858333,55.6122979 37.8869444,55.2188511 C37.29,54.8254043 36.8972222,54.2831915 36.7105556,53.5902553 C36.5258333,52.8973191 36.4325,51.9714468 36.4325,50.8126383 L36.4325,43.6405532 L35.9444444,43.6405532 C35.4097222,43.6405532 35.0013889,43.5133191 34.7194444,43.2568936 C34.4394444,43.0024255 34.2994444,42.6774894 34.2994444,42.286 C34.2994444,41.8945106 34.4452778,41.5734894 34.7408333,41.3229362 C35.0344444,41.0704255 35.4622222,40.9451489 36.0241667,40.9451489" id="Fill-156" fill="#4F5D73"></path>
                    <path d="M45.6783333,53.5354468 L45.6783333,37.3317021 C45.6783333,36.5839574 45.8436111,36.0182553 46.1741667,35.6345957 C46.5047222,35.2509362 46.9519444,35.0591064 47.5138889,35.0591064 C48.0738889,35.0591064 48.5288889,35.2509362 48.8711111,35.6287234 C49.2172222,36.0065106 49.3883333,36.5741702 49.3883333,37.3317021 L49.3883333,53.5354468 C49.3883333,54.2929787 49.2152778,54.8606383 48.8652778,55.240383 C48.5172222,55.6181702 48.0661111,55.8080426 47.5138889,55.8080426 C46.9694444,55.8080426 46.5280556,55.6122979 46.1877778,55.2188511 C45.8475,54.8254043 45.6783333,54.2655745 45.6783333,53.5354468" id="Fill-170" fill="#4F5D73"></path>
                    <path d="M44.6633333,24.4575745 C45.76,25.3873617 47.1775,25.945234 48.7233333,25.945234 L67.6505556,25.945234 L67.6505556,45.0009787 L67.6505556,25.9432766 L44.6633333,24.4575745" id="Fill-171" fill="#6FA4C2"></path>
                    <path d="M44.5486111,24.4497447 L67.6505556,45.0009787 L67.6505556,25.945234 L48.7233333,25.945234 C47.1775,25.945234 45.76,25.3873617 44.6633333,24.4575745 L44.5486111,24.4497447" id="Fill-172" fill="#D5D4CC"></path>
                    <path d="M42.4136111,0.537574468 L42.4136111,19.5913617 C42.4136111,23.1030213 45.2369444,25.945234 48.7233333,25.945234 L67.6505556,25.945234 L42.4136111,0.537574468" id="Fill-173" fill="#FFFFFF"></path>
                </g>
            </g>
        </g>
    </g>
</svg>