<?xml version="1.0" encoding="UTF-8" standalone="no"?>
<svg width="38px" height="40px" viewBox="0 0 38 40" version="1.1" xmlns="http://www.w3.org/2000/svg" xmlns:xlink="http://www.w3.org/1999/xlink" xmlns:sketch="http://www.bohemiancoding.com/sketch/ns">
    <!-- Generator: Sketch 3.3.2 (12043) - http://www.bohemiancoding.com/sketch -->
    <title>icon_turningarrow</title>
    <desc>Created with Sketch.</desc>
    <defs></defs>
    <g id="Page-1" stroke="none" stroke-width="1" fill="none" fill-rule="evenodd" sketch:type="MSPage">
        <g id="01d-Create-order" sketch:type="MSArtboardGroup" transform="translate(-216.000000, -566.000000)" fill="#FFFFFF" opacity="0.700410485">
            <g id="Rotate-the-image-to--+-Fill-103" sketch:type="MSLayerGroup" transform="translate(63.000000, 554.000000)">
                <path d="M152.881596,29.5129756 L147,29.5129756 L155.804681,39.2625 L164.608404,29.5129756 L157.77367,29.5129756 C158.031702,21.6616098 164.494947,15.375 172.434574,15.375 C180.539362,15.375 187.108404,21.9231951 187.108404,30 C187.108404,38.0768049 180.539362,44.625 172.434574,44.625 C172.434574,44.625 172.434574,49.5 172.434574,49.5 C183.240319,49.5 192,40.7701829 192,30 C192,19.2298171 183.240319,10.5 172.434574,10.5 C161.793032,10.5 153.1425,18.9687073 152.881596,29.5129756 Z" id="icon_turningarrow" sketch:type="MSShapeGroup" transform="translate(169.500000, 30.000000) rotate(48.000000) translate(-169.500000, -30.000000) "></path>
            </g>
        </g>
    </g>
</svg>